<?xml version="1.0" standalone="no"?>
<!DOCTYPE svg PUBLIC "-//W3C//DTD SVG 20010904//EN"
 "http://www.w3.org/TR/2001/REC-SVG-20010904/DTD/svg10.dtd">
<svg version="1.0" xmlns="http://www.w3.org/2000/svg"
 width="500.000000pt" height="500.000000pt" viewBox="0 0 500.000000 500.000000"
 preserveAspectRatio="xMidYMid meet">
<metadata>
Created by potrace 1.14, written by Peter Selinger 2001-2017
</metadata>
<g transform="translate(0.000000,500.000000) scale(0.100000,-0.100000)"
fill="#000000" stroke="none">
<path d="M3420 4422 c-14 -1 -59 -7 -100 -14 -41 -7 -80 -11 -87 -10 -6 1 -52
-7 -103 -18 -50 -11 -108 -23 -128 -26 -65 -10 -148 -31 -170 -43 -12 -6 -22
-10 -22 -7 0 2 -15 0 -32 -4 -50 -14 -101 -23 -123 -22 -11 0 -40 -4 -65 -9
-25 -5 -70 -11 -100 -14 -30 -3 -62 -7 -70 -9 -8 -1 -37 -6 -65 -10 -27 -4
-77 -11 -110 -16 -33 -5 -82 -12 -110 -15 -27 -3 -67 -9 -87 -14 -20 -5 -39
-6 -42 -4 -3 3 -29 -1 -58 -8 -29 -7 -60 -13 -68 -14 -13 -2 -48 -8 -115 -22
-11 -2 -40 -6 -65 -9 -52 -5 -83 -11 -108 -18 -9 -3 -34 -7 -55 -11 -22 -3
-69 -11 -105 -19 -37 -8 -77 -14 -89 -14 -38 -1 -284 -52 -348 -73 -33 -10
-73 -21 -90 -23 -16 -2 -30 -5 -30 -6 0 -1 -11 -3 -23 -6 -13 -2 -58 -15 -100
-29 -42 -14 -82 -25 -89 -25 -7 0 -13 -4 -13 -10 0 -5 -6 -10 -14 -10 -32 0
-119 -115 -121 -160 0 -8 -4 -21 -8 -27 -5 -7 -6 -13 -2 -13 3 0 -1 -13 -10
-30 -9 -16 -20 -30 -25 -30 -9 0 -108 -97 -137 -132 -45 -59 -84 -175 -87
-260 -1 -16 -4 -28 -8 -28 -4 0 -3 -11 2 -24 5 -13 7 -26 4 -29 -8 -8 -8 -90
1 -137 4 -25 9 -61 10 -80 3 -44 44 -246 57 -280 5 -14 12 -34 14 -45 2 -11 9
-45 15 -75 6 -30 15 -63 20 -73 5 -9 16 -45 24 -80 26 -113 48 -192 55 -197 4
-3 10 -26 14 -51 4 -25 16 -63 28 -85 16 -29 21 -61 24 -134 2 -52 6 -122 9
-155 4 -33 8 -82 11 -109 2 -28 6 -58 9 -67 10 -30 16 -62 20 -110 3 -26 9
-57 14 -70 5 -14 16 -63 26 -109 9 -47 21 -87 25 -90 5 -3 10 -19 13 -35 2
-17 10 -43 17 -60 7 -16 12 -34 12 -38 -1 -4 5 -10 13 -13 8 -3 13 -9 10 -14
-6 -9 41 -51 75 -67 67 -31 119 -32 263 -2 54 11 107 21 118 22 10 1 19 4 19
8 0 4 15 11 32 14 18 4 38 11 43 15 26 19 62 19 83 -1 12 -11 22 -17 22 -15 0
3 31 -15 69 -39 38 -25 75 -45 81 -45 15 0 74 -32 78 -43 2 -4 8 -5 13 -1 5 3
9 1 9 -4 0 -5 10 -13 23 -17 31 -10 26 -8 92 -39 33 -16 65 -29 70 -31 6 -1
18 -5 27 -9 9 -4 22 -9 30 -10 19 -4 50 -16 70 -27 10 -5 28 -9 41 -9 13 0 27
-3 31 -7 4 -5 16 -9 27 -9 10 -1 20 -2 22 -4 7 -6 140 -33 227 -47 60 -9 424
-10 448 -2 13 5 21 6 19 1 -3 -4 19 -7 49 -7 30 0 54 3 54 7 0 3 12 3 28 -1
15 -4 41 -4 59 1 17 5 51 10 75 12 83 7 261 42 298 58 14 6 34 13 45 15 28 5
147 53 163 65 6 6 12 8 12 4 0 -9 217 105 284 150 31 20 56 41 56 46 0 5 4 7
9 4 4 -3 17 2 28 12 11 9 35 28 53 42 87 66 204 178 278 267 32 38 48 50 62
46 12 -3 20 0 20 6 0 7 4 10 9 7 5 -4 11 -3 13 1 1 5 17 15 33 24 17 9 62 34
100 57 39 22 74 40 79 40 5 0 12 4 15 9 3 5 36 29 72 55 118 81 208 166 236
223 33 65 24 117 -40 242 -92 179 -220 438 -216 438 2 0 -6 16 -18 35 -38 61
-94 164 -100 183 -3 9 -9 17 -14 17 -5 0 -9 5 -9 11 0 6 -9 24 -21 40 -11 16
-17 29 -14 29 4 0 0 7 -7 15 -23 25 -33 39 -46 65 -25 48 -90 150 -109 168 -7
7 -13 16 -13 20 0 4 -14 22 -31 40 -16 17 -28 32 -25 32 6 0 -92 97 -128 126
l-26 21 22 49 c12 27 23 54 24 59 1 6 5 24 9 40 19 85 13 370 -10 493 -35 184
-138 353 -250 410 -99 50 -274 78 -405 64z"/>
</g>
</svg>
